<svg width="1182" height="678" xmlns="http://www.w3.org/2000/svg" xmlns:xlink="http://www.w3.org/1999/xlink" overflow="hidden"><defs><clipPath id="clip0"><rect x="1650" y="829" width="1182" height="678"/></clipPath></defs><g clip-path="url(#clip0)" transform="translate(-1650 -829)"><path d="M318.975 134.748 318.975 324.422-1.02453 324.422-1.02453 312.405C-1.02453 293.015 9.09527 240.304 17.5738 215.178 58.0524 96.6489 161.984 10.8925 274.394 3.51874 286.155 2.69927 300.924 1.33386 307.488 0.787645L318.975-0.578046 318.975 133.928C318.975 134.202 318.975 134.474 318.975 134.748Z" fill="#FFFFFF" fill-rule="evenodd" fill-opacity="1" transform="matrix(1 0 0 -1 2511 1158)"/><path d="M-0.16206 330.622-0.16206-0.378237 102.838-0.378237 205.838-0.378237 205.838 330.622 205.838 661.622 102.838 661.622-0.16206 661.622-0.16206 330.622Z" fill="#FFFFFF" fill-rule="evenodd" fill-opacity="1" transform="matrix(1 0 0 -1 1654 1500)"/><path d="M-0.576786 332.123-0.576786-0.37695 221.423-0.37695 443.423-0.37695 442.054 141.38C440.96 272.738 440.412 285.053 434.937 312.419 411.67 428.178 348.711 522.045 250.713 587.724 193.228 626.31 112.203 655.045 46.7794 660.518 36.6513 661.339 21.5957 662.707 13.9311 663.255L-0.576786 664.623-0.576786 332.123Z" fill="#FFFFFF" fill-rule="evenodd" fill-opacity="1" transform="matrix(1 0 0 -1 1974 1503)"/><path d="M253.659 318.718C146.266 300.378 55.2682 218.26 17.5576 105.757 10.4527 83.8585 3.89429 50.7374 0.615099 18.4374L-1.0245-0.176164 160.475-0.176164 321.976-0.176164 321.976 161.324 321.976 322.824 298.201 322.55C284.811 322.277 264.863 320.634 253.659 318.718Z" fill="#FFFFFF" fill-rule="evenodd" fill-opacity="1" transform="matrix(1 0 0 -1 2510 1506)"/></g></svg>